<mxfile host="app.diagrams.net" agent="Mozilla/5.0 (Macintosh; Intel Mac OS X 10_15_7) AppleWebKit/537.36 (KHTML, like Gecko) Chrome/132.0.0.0 Safari/537.36" version="26.0.6">
  <diagram name="Page-1" id="M9ZF05xPXaLbQMJgIYiB">
    <mxGraphModel grid="1" page="1" gridSize="10" guides="1" tooltips="1" connect="1" arrows="1" fold="1" pageScale="1" pageWidth="827" pageHeight="1169" math="0" shadow="0">
      <root>
        <mxCell id="0" />
        <mxCell id="1" parent="0" />
        <mxCell id="ItFc6qjYGQzhmiUpGOcp-2" value="Utilisateur" style="shape=umlActor;verticalLabelPosition=bottom;verticalAlign=top;html=1;outlineConnect=0;fillColor=#99FF33;" vertex="1" parent="1">
          <mxGeometry x="55" y="140" width="50" height="90" as="geometry" />
        </mxCell>
        <mxCell id="ItFc6qjYGQzhmiUpGOcp-6" value="Admin" style="shape=umlActor;verticalLabelPosition=bottom;verticalAlign=top;html=1;outlineConnect=0;fillColor=#FF3333;" vertex="1" parent="1">
          <mxGeometry x="55" y="460" width="50" height="90" as="geometry" />
        </mxCell>
        <mxCell id="ItFc6qjYGQzhmiUpGOcp-13" value="Super admin" style="shape=umlActor;verticalLabelPosition=bottom;verticalAlign=top;html=1;outlineConnect=0;fillColor=#3333FF;" vertex="1" parent="1">
          <mxGeometry x="50" y="790" width="60" height="100" as="geometry" />
        </mxCell>
        <mxCell id="ItFc6qjYGQzhmiUpGOcp-17" value="S&#39;inscrire&amp;nbsp;" style="ellipse;whiteSpace=wrap;html=1;" vertex="1" parent="1">
          <mxGeometry x="359" y="920" width="120" height="80" as="geometry" />
        </mxCell>
        <mxCell id="ItFc6qjYGQzhmiUpGOcp-18" value="" style="endArrow=classic;html=1;rounded=0;strokeColor=#99FF33;" edge="1" parent="1" source="ItFc6qjYGQzhmiUpGOcp-2" target="ItFc6qjYGQzhmiUpGOcp-17">
          <mxGeometry width="50" height="50" relative="1" as="geometry">
            <mxPoint x="420" y="590" as="sourcePoint" />
            <mxPoint x="470" y="540" as="targetPoint" />
          </mxGeometry>
        </mxCell>
        <mxCell id="ItFc6qjYGQzhmiUpGOcp-20" value="Se connecter" style="ellipse;whiteSpace=wrap;html=1;" vertex="1" parent="1">
          <mxGeometry x="690" y="400" width="120" height="80" as="geometry" />
        </mxCell>
        <mxCell id="ItFc6qjYGQzhmiUpGOcp-21" style="edgeStyle=orthogonalEdgeStyle;rounded=0;orthogonalLoop=1;jettySize=auto;html=1;exitX=0.5;exitY=1;exitDx=0;exitDy=0;" edge="1" parent="1" source="ItFc6qjYGQzhmiUpGOcp-20" target="ItFc6qjYGQzhmiUpGOcp-20">
          <mxGeometry relative="1" as="geometry" />
        </mxCell>
        <mxCell id="ItFc6qjYGQzhmiUpGOcp-23" value="Afficher la liste des messages&amp;nbsp;&amp;nbsp;" style="ellipse;whiteSpace=wrap;html=1;" vertex="1" parent="1">
          <mxGeometry x="349" y="190" width="130" height="80" as="geometry" />
        </mxCell>
        <mxCell id="ItFc6qjYGQzhmiUpGOcp-24" value="Poser une question" style="ellipse;whiteSpace=wrap;html=1;" vertex="1" parent="1">
          <mxGeometry x="354" y="80" width="120" height="80" as="geometry" />
        </mxCell>
        <mxCell id="ItFc6qjYGQzhmiUpGOcp-31" value="" style="endArrow=classic;html=1;rounded=0;strokeColor=#FF3333;" edge="1" parent="1" source="ItFc6qjYGQzhmiUpGOcp-6" target="ItFc6qjYGQzhmiUpGOcp-17">
          <mxGeometry width="50" height="50" relative="1" as="geometry">
            <mxPoint x="150" y="630" as="sourcePoint" />
            <mxPoint x="470" y="540" as="targetPoint" />
          </mxGeometry>
        </mxCell>
        <mxCell id="ItFc6qjYGQzhmiUpGOcp-34" value="" style="endArrow=classic;html=1;rounded=0;strokeColor=#99FF33;" edge="1" parent="1" source="ItFc6qjYGQzhmiUpGOcp-2" target="ItFc6qjYGQzhmiUpGOcp-23">
          <mxGeometry width="50" height="50" relative="1" as="geometry">
            <mxPoint x="420" y="590" as="sourcePoint" />
            <mxPoint x="470" y="540" as="targetPoint" />
          </mxGeometry>
        </mxCell>
        <mxCell id="ItFc6qjYGQzhmiUpGOcp-35" value="" style="endArrow=classic;html=1;rounded=0;strokeColor=#99FF33;" edge="1" parent="1" source="ItFc6qjYGQzhmiUpGOcp-2" target="ItFc6qjYGQzhmiUpGOcp-24">
          <mxGeometry width="50" height="50" relative="1" as="geometry">
            <mxPoint x="420" y="590" as="sourcePoint" />
            <mxPoint x="470" y="540" as="targetPoint" />
          </mxGeometry>
        </mxCell>
        <mxCell id="ItFc6qjYGQzhmiUpGOcp-36" value="" style="endArrow=classic;html=1;rounded=0;strokeColor=#FF3333;" edge="1" parent="1" source="ItFc6qjYGQzhmiUpGOcp-6" target="ItFc6qjYGQzhmiUpGOcp-23">
          <mxGeometry width="50" height="50" relative="1" as="geometry">
            <mxPoint x="420" y="590" as="sourcePoint" />
            <mxPoint x="470" y="540" as="targetPoint" />
          </mxGeometry>
        </mxCell>
        <mxCell id="ItFc6qjYGQzhmiUpGOcp-38" value="Répondre à une question&amp;nbsp;" style="ellipse;whiteSpace=wrap;html=1;" vertex="1" parent="1">
          <mxGeometry x="354" y="590" width="120" height="80" as="geometry" />
        </mxCell>
        <mxCell id="ItFc6qjYGQzhmiUpGOcp-39" value="" style="endArrow=classic;html=1;rounded=0;strokeColor=#FF3333;" edge="1" parent="1" source="ItFc6qjYGQzhmiUpGOcp-6" target="ItFc6qjYGQzhmiUpGOcp-38">
          <mxGeometry width="50" height="50" relative="1" as="geometry">
            <mxPoint x="420" y="590" as="sourcePoint" />
            <mxPoint x="470" y="540" as="targetPoint" />
          </mxGeometry>
        </mxCell>
        <mxCell id="ItFc6qjYGQzhmiUpGOcp-43" value="" style="endArrow=classic;html=1;rounded=0;strokeColor=#FF3333;" edge="1" parent="1" source="ItFc6qjYGQzhmiUpGOcp-6" target="ItFc6qjYGQzhmiUpGOcp-42">
          <mxGeometry width="50" height="50" relative="1" as="geometry">
            <mxPoint x="420" y="590" as="sourcePoint" />
            <mxPoint x="470" y="540" as="targetPoint" />
          </mxGeometry>
        </mxCell>
        <mxCell id="ItFc6qjYGQzhmiUpGOcp-45" value="Gérer les messages de sa ligue&amp;nbsp;" style="ellipse;whiteSpace=wrap;html=1;" vertex="1" parent="1">
          <mxGeometry x="354" y="330" width="120" height="80" as="geometry" />
        </mxCell>
        <mxCell id="ItFc6qjYGQzhmiUpGOcp-46" value="" style="endArrow=classic;html=1;rounded=0;strokeColor=#FF3333;" edge="1" parent="1" source="ItFc6qjYGQzhmiUpGOcp-6" target="ItFc6qjYGQzhmiUpGOcp-45">
          <mxGeometry width="50" height="50" relative="1" as="geometry">
            <mxPoint x="420" y="590" as="sourcePoint" />
            <mxPoint x="470" y="540" as="targetPoint" />
          </mxGeometry>
        </mxCell>
        <mxCell id="ItFc6qjYGQzhmiUpGOcp-50" value="" style="endArrow=none;dashed=1;html=1;dashPattern=1 3;strokeWidth=2;rounded=0;" edge="1" parent="1" source="ItFc6qjYGQzhmiUpGOcp-24" target="ItFc6qjYGQzhmiUpGOcp-20">
          <mxGeometry width="50" height="50" relative="1" as="geometry">
            <mxPoint x="420" y="590" as="sourcePoint" />
            <mxPoint x="470" y="540" as="targetPoint" />
          </mxGeometry>
        </mxCell>
        <mxCell id="ItFc6qjYGQzhmiUpGOcp-51" value="" style="endArrow=classic;html=1;rounded=0;strokeColor=#FF3333;" edge="1" parent="1" source="ItFc6qjYGQzhmiUpGOcp-6" target="ItFc6qjYGQzhmiUpGOcp-42">
          <mxGeometry width="50" height="50" relative="1" as="geometry">
            <mxPoint x="105" y="522" as="sourcePoint" />
            <mxPoint x="557" y="822" as="targetPoint" />
          </mxGeometry>
        </mxCell>
        <mxCell id="ItFc6qjYGQzhmiUpGOcp-42" value="Modifier&amp;nbsp; un message&amp;nbsp;" style="ellipse;whiteSpace=wrap;html=1;" vertex="1" parent="1">
          <mxGeometry x="354" y="710" width="120" height="80" as="geometry" />
        </mxCell>
        <mxCell id="ItFc6qjYGQzhmiUpGOcp-52" value="" style="endArrow=none;dashed=1;html=1;dashPattern=1 3;strokeWidth=2;rounded=0;" edge="1" parent="1" source="ItFc6qjYGQzhmiUpGOcp-23" target="ItFc6qjYGQzhmiUpGOcp-20">
          <mxGeometry width="50" height="50" relative="1" as="geometry">
            <mxPoint x="420" y="590" as="sourcePoint" />
            <mxPoint x="470" y="540" as="targetPoint" />
          </mxGeometry>
        </mxCell>
        <mxCell id="ItFc6qjYGQzhmiUpGOcp-53" value="" style="endArrow=none;dashed=1;html=1;dashPattern=1 3;strokeWidth=2;rounded=0;" edge="1" parent="1" source="ItFc6qjYGQzhmiUpGOcp-45" target="ItFc6qjYGQzhmiUpGOcp-20">
          <mxGeometry width="50" height="50" relative="1" as="geometry">
            <mxPoint x="420" y="590" as="sourcePoint" />
            <mxPoint x="470" y="540" as="targetPoint" />
          </mxGeometry>
        </mxCell>
        <mxCell id="ItFc6qjYGQzhmiUpGOcp-54" value="" style="endArrow=none;dashed=1;html=1;dashPattern=1 3;strokeWidth=2;rounded=0;" edge="1" parent="1" source="ItFc6qjYGQzhmiUpGOcp-38" target="ItFc6qjYGQzhmiUpGOcp-20">
          <mxGeometry width="50" height="50" relative="1" as="geometry">
            <mxPoint x="420" y="590" as="sourcePoint" />
            <mxPoint x="470" y="540" as="targetPoint" />
          </mxGeometry>
        </mxCell>
        <mxCell id="ItFc6qjYGQzhmiUpGOcp-55" value="" style="endArrow=none;dashed=1;html=1;dashPattern=1 3;strokeWidth=2;rounded=0;" edge="1" parent="1" source="ItFc6qjYGQzhmiUpGOcp-42" target="ItFc6qjYGQzhmiUpGOcp-20">
          <mxGeometry width="50" height="50" relative="1" as="geometry">
            <mxPoint x="420" y="590" as="sourcePoint" />
            <mxPoint x="470" y="540" as="targetPoint" />
          </mxGeometry>
        </mxCell>
        <mxCell id="ItFc6qjYGQzhmiUpGOcp-57" value="" style="endArrow=classic;html=1;rounded=0;strokeColor=#3333FF;" edge="1" parent="1" source="ItFc6qjYGQzhmiUpGOcp-13" target="ItFc6qjYGQzhmiUpGOcp-6">
          <mxGeometry width="50" height="50" relative="1" as="geometry">
            <mxPoint x="490" y="600" as="sourcePoint" />
            <mxPoint x="540" y="550" as="targetPoint" />
          </mxGeometry>
        </mxCell>
        <mxCell id="ItFc6qjYGQzhmiUpGOcp-60" value="" style="endArrow=classic;html=1;rounded=0;strokeColor=#FF3333;" edge="1" parent="1" source="ItFc6qjYGQzhmiUpGOcp-6" target="ItFc6qjYGQzhmiUpGOcp-24">
          <mxGeometry width="50" height="50" relative="1" as="geometry">
            <mxPoint x="100" y="400" as="sourcePoint" />
            <mxPoint x="150" y="350" as="targetPoint" />
          </mxGeometry>
        </mxCell>
        <mxCell id="XHVmn7WK2hqidXP5CTJJ-2" value="Supprimer un message&amp;nbsp;" style="ellipse;whiteSpace=wrap;html=1;" vertex="1" parent="1">
          <mxGeometry x="359" y="810" width="120" height="80" as="geometry" />
        </mxCell>
        <mxCell id="XHVmn7WK2hqidXP5CTJJ-3" value="Déconnecter&amp;nbsp;" style="ellipse;whiteSpace=wrap;html=1;" vertex="1" parent="1">
          <mxGeometry x="359" y="1020" width="120" height="80" as="geometry" />
        </mxCell>
        <mxCell id="XHVmn7WK2hqidXP5CTJJ-5" value="" style="endArrow=classic;html=1;rounded=0;entryX=0.067;entryY=0.25;entryDx=0;entryDy=0;entryPerimeter=0;fillColor=#f8cecc;strokeColor=#FF0000;" edge="1" parent="1" target="XHVmn7WK2hqidXP5CTJJ-3">
          <mxGeometry width="50" height="50" relative="1" as="geometry">
            <mxPoint x="100" y="560" as="sourcePoint" />
            <mxPoint x="140" y="580" as="targetPoint" />
          </mxGeometry>
        </mxCell>
        <mxCell id="XHVmn7WK2hqidXP5CTJJ-6" value="" style="endArrow=classic;html=1;rounded=0;entryX=0;entryY=0;entryDx=0;entryDy=0;strokeColor=#99FF33;" edge="1" parent="1" target="XHVmn7WK2hqidXP5CTJJ-3">
          <mxGeometry width="50" height="50" relative="1" as="geometry">
            <mxPoint x="100" y="230" as="sourcePoint" />
            <mxPoint x="210" y="520" as="targetPoint" />
          </mxGeometry>
        </mxCell>
        <mxCell id="XHVmn7WK2hqidXP5CTJJ-7" value="" style="endArrow=none;dashed=1;html=1;dashPattern=1 3;strokeWidth=2;rounded=0;exitX=0.65;exitY=1;exitDx=0;exitDy=0;exitPerimeter=0;entryX=0.933;entryY=0.175;entryDx=0;entryDy=0;entryPerimeter=0;" edge="1" parent="1" source="ItFc6qjYGQzhmiUpGOcp-20" target="XHVmn7WK2hqidXP5CTJJ-2">
          <mxGeometry width="50" height="50" relative="1" as="geometry">
            <mxPoint x="390" y="730" as="sourcePoint" />
            <mxPoint x="440" y="680" as="targetPoint" />
          </mxGeometry>
        </mxCell>
        <mxCell id="XHVmn7WK2hqidXP5CTJJ-8" value="" style="endArrow=classic;html=1;rounded=0;exitX=1;exitY=1;exitDx=0;exitDy=0;exitPerimeter=0;entryX=0;entryY=0;entryDx=0;entryDy=0;strokeColor=#FF3333;" edge="1" parent="1" source="ItFc6qjYGQzhmiUpGOcp-6" target="XHVmn7WK2hqidXP5CTJJ-2">
          <mxGeometry width="50" height="50" relative="1" as="geometry">
            <mxPoint x="390" y="730" as="sourcePoint" />
            <mxPoint x="440" y="680" as="targetPoint" />
          </mxGeometry>
        </mxCell>
      </root>
    </mxGraphModel>
  </diagram>
</mxfile>
